<svg width="666" height="427" viewBox="0 0 666 427" fill="none" xmlns="http://www.w3.org/2000/svg">
<circle cx="332.851" cy="332.969" r="332.851" fill="white"/>
<path d="M321.147 479.314L269.745 497.778M321.147 479.314L321.147 71.9922M321.147 479.314L380.148 487.903M321.147 479.314L540.165 406.61M540.165 120.859L488.167 109.257M540.165 120.859L540.165 196.841M540.165 120.859L138.669 242.728M321.147 71.9922L262.742 87.2923M321.147 71.9922L380.148 85.1562M218.343 516.243L148.615 541.291L146.084 465.309M218.343 516.243L204.337 102.592M218.343 516.243L269.745 497.778M204.337 102.592L134.609 120.859L136.639 181.793M204.337 102.592L262.742 87.2923M262.742 87.2923L269.745 497.778M380.148 85.1562L380.148 487.903M380.148 85.1562L436.169 97.6555M380.148 487.903L436.169 496.058M436.169 496.058L436.169 97.6555M436.169 496.058L488.167 503.627M436.169 496.058L540.165 458.903M436.169 97.6555L488.167 109.257M436.169 97.6555L136.639 181.793M488.167 109.257L488.167 503.627M488.167 503.627L540.165 511.196L540.165 458.903M146.084 465.309L540.165 335.693M146.084 465.309L143.959 401.544M540.165 335.693L540.165 264.479M540.165 335.693L540.165 406.61M143.959 401.544L540.165 264.479M143.959 401.544L141.359 323.477M540.165 264.479L540.165 196.841M141.359 323.477L540.165 196.841M141.359 323.477L138.669 242.728M138.669 242.728L136.639 181.793M540.165 406.61L540.165 458.903" stroke="url(#paint0_linear_60_38)" stroke-width="2"/>
<defs>
<linearGradient id="paint0_linear_60_38" x1="520.303" y1="148.207" x2="374.802" y2="334.818" gradientUnits="userSpaceOnUse">
<stop stop-color="#CFDEEC"/>
<stop offset="1" stop-color="#B0C2D5" stop-opacity="0"/>
</linearGradient>
</defs>
</svg>
