<svg width="666" height="482" viewBox="0 0 666 482" fill="none" xmlns="http://www.w3.org/2000/svg">
<circle cx="332.851" cy="388.457" r="332.851" fill="white"/>
<g filter="url(#filter0_f_64_29)">
<circle cx="337.387" cy="305.315" r="105.315" fill="#CFDDEC"/>
</g>
<path d="M321.147 534.802L269.745 553.267M321.147 534.802L321.147 127.48M321.147 534.802L380.148 543.391M321.147 534.802L540.165 462.098M540.165 176.347L488.167 164.745M540.165 176.347L540.165 252.329M540.165 176.347L138.669 298.216M321.147 127.48L262.742 142.781M321.147 127.48L380.148 140.645M218.343 571.731L148.615 596.779L146.084 520.798M218.343 571.731L204.337 158.081M218.343 571.731L269.745 553.267M204.337 158.081L134.609 176.347L136.639 237.281M204.337 158.081L262.742 142.781M262.742 142.781L269.745 553.267M380.148 140.645L380.148 543.391M380.148 140.645L436.169 153.144M380.148 543.391L436.169 551.546M436.169 551.546L436.169 153.144M436.169 551.546L488.167 559.115M436.169 551.546L540.165 514.391M436.169 153.144L488.167 164.745M436.169 153.144L136.639 237.281M488.167 164.745L488.167 559.115M488.167 559.115L540.165 566.685L540.165 514.391M146.084 520.798L540.165 391.182M146.084 520.798L143.959 457.033M540.165 391.182L540.165 319.967M540.165 391.182L540.165 462.098M143.959 457.033L540.165 319.967M143.959 457.033L141.359 378.965M540.165 319.967L540.165 252.329M141.359 378.965L540.165 252.329M141.359 378.965L138.669 298.216M138.669 298.216L136.639 237.281M540.165 462.098L540.165 514.391" stroke="url(#paint0_linear_64_29)" stroke-width="2"/>
<defs>
<filter id="filter0_f_64_29" x="32.0723" y="0" width="610.63" height="610.63" filterUnits="userSpaceOnUse" color-interpolation-filters="sRGB">
<feFlood flood-opacity="0" result="BackgroundImageFix"/>
<feBlend mode="normal" in="SourceGraphic" in2="BackgroundImageFix" result="shape"/>
<feGaussianBlur stdDeviation="100" result="effect1_foregroundBlur_64_29"/>
</filter>
<linearGradient id="paint0_linear_64_29" x1="520.303" y1="203.695" x2="374.802" y2="390.306" gradientUnits="userSpaceOnUse">
<stop stop-color="#CFDEEC"/>
<stop offset="1" stop-color="#B0C2D5" stop-opacity="0"/>
</linearGradient>
</defs>
</svg>
