<svg width="566" height="572" viewBox="0 0 566 572" fill="none" xmlns="http://www.w3.org/2000/svg">
<g filter="url(#filter0_f_46_319)">
<circle cx="285.5" cy="286.25" r="85.5" fill="#CFDDEC"/>
</g>
<path d="M258.065 472.559L216.335 487.549M258.065 472.559L258.065 141.875M258.065 472.559L305.965 479.532M258.065 472.559L435.875 413.534M435.875 181.547L393.66 172.129M435.875 181.547L435.875 243.233M435.875 181.547L109.921 280.486M258.065 141.875L210.65 154.296M258.065 141.875L305.965 152.562M174.604 502.54L117.995 522.875L115.94 461.189M174.604 502.54L163.234 166.718M174.604 502.54L216.335 487.549M163.234 166.718L106.625 181.547L108.273 231.017M163.234 166.718L210.65 154.296M210.65 154.296L216.335 487.549M305.965 152.562L305.965 479.532M305.965 152.562L351.446 162.71M305.965 479.532L351.446 486.152M351.446 486.152L351.446 162.71M351.446 486.152L393.66 492.297M351.446 486.152L435.875 455.988M351.446 162.71L393.66 172.129M351.446 162.71L108.273 231.017M393.66 172.129L393.66 492.297M393.66 492.297L435.875 498.443L435.875 455.988M115.94 461.189L435.875 355.961M115.94 461.189L114.216 409.422M435.875 355.961L435.875 298.145M435.875 355.961L435.875 413.534M114.216 409.422L435.875 298.145M114.216 409.422L112.105 346.043M435.875 298.145L435.875 243.233M112.105 346.043L435.875 243.233M112.105 346.043L109.921 280.486M109.921 280.486L108.273 231.017M435.875 413.534L435.875 455.988" stroke="url(#paint0_linear_46_319)" stroke-width="2"/>
<defs>
<filter id="filter0_f_46_319" x="0" y="0.75" width="571" height="571" filterUnits="userSpaceOnUse" color-interpolation-filters="sRGB">
<feFlood flood-opacity="0" result="BackgroundImageFix"/>
<feBlend mode="normal" in="SourceGraphic" in2="BackgroundImageFix" result="shape"/>
<feGaussianBlur stdDeviation="100" result="effect1_foregroundBlur_46_319"/>
</filter>
<linearGradient id="paint0_linear_46_319" x1="419.75" y1="203.75" x2="301.625" y2="355.25" gradientUnits="userSpaceOnUse">
<stop stop-color="#CFDEEC"/>
<stop offset="1" stop-color="#B0C2D5" stop-opacity="0"/>
</linearGradient>
</defs>
</svg>
