<svg width="88" height="88" viewBox="0 0 88 88" fill="none" xmlns="http://www.w3.org/2000/svg">
<circle cx="44" cy="44" r="44" fill="#162466"/>
<path d="M42.0977 26.0889C42.6965 24.2465 45.3035 24.2466 45.9023 26.0889L48.4375 33.8916C48.973 35.5396 50.5084 36.6551 52.2412 36.6553H60.4453C62.3827 36.6553 63.1884 39.1346 61.6211 40.2734L54.9844 45.0957C53.5824 46.1143 52.9958 47.9203 53.5312 49.5684L56.0664 57.3701C56.6651 59.2127 54.5557 60.7452 52.9883 59.6064L46.3516 54.7842C44.9496 53.7656 43.0504 53.7656 41.6484 54.7842L35.0117 59.6064C33.4443 60.7452 31.3349 59.2127 31.9336 57.3701L34.4688 49.5684C35.0042 47.9203 34.4176 46.1143 33.0156 45.0957L26.3789 40.2734C24.8116 39.1346 25.6173 36.6553 27.5547 36.6553H35.7588C37.4916 36.6551 39.027 35.5396 39.5625 33.8916L42.0977 26.0889Z" stroke="#D6D6E3" stroke-width="2"/>
</svg>
