<svg width="89" height="88" viewBox="0 0 89 88" fill="none" xmlns="http://www.w3.org/2000/svg">
<circle cx="44.5" cy="44" r="44" fill="#162466"/>
<path d="M44.5 52C48.9183 52 52.5 48.4183 52.5 44C52.5 39.5817 48.9183 36 44.5 36C40.0817 36 36.5 39.5817 36.5 44C36.5 48.4183 40.0817 52 44.5 52Z" stroke="#D6D6E3" stroke-width="2" stroke-linecap="round" stroke-linejoin="round"/>
<path d="M53.9313 33.3496C54.3602 33.7447 54.7666 34.1511 55.1504 34.5687L59.7729 35.2291C60.5261 36.5371 61.1066 37.9372 61.5 39.3944L58.6892 43.1365C58.6892 43.1365 58.74 44.2879 58.6892 44.8635L61.5 48.6056C61.1084 50.0634 60.5278 51.4637 59.7729 52.7709L55.1504 53.4313C55.1504 53.4313 54.3546 54.261 53.9313 54.6504L53.2709 59.2729C51.9629 60.0261 50.5628 60.6066 49.1056 61L45.3635 58.1892C44.789 58.2401 44.211 58.2401 43.6365 58.1892L39.8944 61C38.4366 60.6084 37.0363 60.0278 35.7291 59.2729L35.0687 54.6504C34.6511 54.2553 34.2447 53.8489 33.8496 53.4313L29.2271 52.7709C28.4739 51.4629 27.8934 50.0628 27.5 48.6056L30.3108 44.8635C30.3108 44.8635 30.26 43.7122 30.3108 43.1365L27.5 39.3944C27.8916 37.9366 28.4722 36.5363 29.2271 35.2291L33.8496 34.5687C34.2447 34.1511 34.6511 33.7447 35.0687 33.3496L35.7291 28.7271C37.0371 27.9739 38.4372 27.3934 39.8944 27L43.6365 29.8108C44.211 29.7599 44.789 29.7599 45.3635 29.8108L49.1056 27C50.5634 27.3916 51.9637 27.9722 53.2709 28.7271L53.9313 33.3496Z" stroke="#D6D6E3" stroke-width="2" stroke-linecap="round" stroke-linejoin="round"/>
</svg>
