<svg width="88" height="88" viewBox="0 0 88 88" fill="none" xmlns="http://www.w3.org/2000/svg">
<circle cx="44" cy="44" r="44" fill="#162466"/>
<path d="M53.7778 29C53.4536 29 53.1427 29.1175 52.9135 29.3267C52.6843 29.5359 52.5556 29.8196 52.5556 30.1154V34.5769H35.4444V30.1154C35.4444 29.8196 35.3157 29.5359 35.0865 29.3267C34.8573 29.1175 34.5464 29 34.2222 29C33.8981 29 33.5872 29.1175 33.358 29.3267C33.1288 29.5359 33 29.8196 33 30.1154V56.8846C33 57.1804 33.1288 57.4641 33.358 57.6733C33.5872 57.8825 33.8981 58 34.2222 58C34.5464 58 34.8573 57.8825 35.0865 57.6733C35.3157 57.4641 35.4444 57.1804 35.4444 56.8846V52.4231H52.5556V56.8846C52.5556 57.1804 52.6843 57.4641 52.9135 57.6733C53.1427 57.8825 53.4536 58 53.7778 58C54.1019 58 54.4128 57.8825 54.642 57.6733C54.8712 57.4641 55 57.1804 55 56.8846V30.1154C55 29.8196 54.8712 29.5359 54.642 29.3267C54.4128 29.1175 54.1019 29 53.7778 29ZM52.5556 36.8077V42.3846H35.4444V36.8077H52.5556ZM35.4444 50.1923V44.6154H52.5556V50.1923H35.4444Z" fill="#D6D6E3"/>
</svg>
