<svg width="88" height="88" viewBox="0 0 88 88" fill="none" xmlns="http://www.w3.org/2000/svg">
<circle cx="44" cy="44" r="44" fill="#162466"/>
<path d="M63.9074 48.2305L69.4953 45.4479C69.7112 45.3402 69.9034 45.1904 70.0606 45.0073C70.2178 44.8242 70.3368 44.6115 70.4105 44.3817C70.4843 44.152 70.5114 43.9098 70.4902 43.6694C70.469 43.429 70.3999 43.1953 70.2871 42.982L64.7218 32.3266C64.5046 31.9078 64.1305 31.592 63.6813 31.4479C63.2321 31.3038 62.7441 31.3432 62.3238 31.5574L56.6681 34.3853M63.9074 48.2305L56.6681 34.3853M63.9074 48.2305L60.2877 52.4836M56.6681 34.3853H47.4605C47.2255 34.3844 46.9926 34.43 46.7753 34.5193C46.5579 34.6085 46.3602 34.7398 46.1936 34.9056L37.3254 43.7512C37.1444 43.9371 37.0048 44.1593 36.9161 44.4032C36.8273 44.647 36.7914 44.9069 36.8107 45.1657C36.8299 45.4245 36.9039 45.6763 37.0277 45.9043C37.1516 46.1324 37.3225 46.3315 37.529 46.4886L38.7507 47.4161C40.0052 48.3525 41.5288 48.8583 43.0943 48.8583C44.6598 48.8583 46.1833 48.3525 47.4379 47.4161L50.3336 45.2443L60.2877 52.4836M24.091 48.0043L18.5031 45.199C18.288 45.0936 18.0962 44.946 17.9393 44.7649C17.7823 44.5839 17.6634 44.3731 17.5895 44.1452C17.5156 43.9173 17.4883 43.6768 17.5093 43.4381C17.5302 43.1994 17.5989 42.9674 17.7113 42.7558L23.2766 32.1004C23.4943 31.6819 23.8667 31.365 24.3147 31.2171C24.7626 31.0692 25.2505 31.102 25.6746 31.3085L31.3303 34.1364L24.091 48.0043ZM24.091 48.0043L36.4658 57.6643C36.6588 57.8213 36.8821 57.9368 37.1218 58.0036L50.2431 61.284C50.5468 61.3496 50.8618 61.3406 51.1612 61.2579C51.4607 61.1751 51.7356 61.0211 51.9625 60.8089L60.2877 52.4836M31.4661 34.1364L43.0717 30.743C43.484 30.6247 43.925 30.6568 44.3159 30.8335L52.1435 34.3853" stroke="#D6D6E3" stroke-width="2.2" stroke-linecap="round" stroke-linejoin="round"/>
</svg>
