<svg width="89" height="89" viewBox="0 0 89 89" fill="none" xmlns="http://www.w3.org/2000/svg">
<circle cx="44.5" cy="44.7115" r="44" fill="#162466"/>
<path d="M44.5 51.7115C48.366 51.7115 51.5 48.5775 51.5 44.7115C51.5 40.8456 48.366 37.7115 44.5 37.7115C40.634 37.7115 37.5 40.8456 37.5 44.7115C37.5 48.5775 40.634 51.7115 44.5 51.7115Z" stroke="#D6D6E3" stroke-width="2" stroke-linecap="round" stroke-linejoin="round"/>
<path d="M54.4563 59.7073C51.1152 61.9256 47.129 62.9645 43.1302 62.6593C39.1315 62.3541 35.3491 60.7223 32.3834 58.0227C29.4176 55.3231 27.4384 51.7104 26.7597 47.7578C26.081 43.8053 26.7417 39.7393 28.6369 36.205C30.5322 32.6707 33.5535 29.8705 37.2214 28.2488C40.8893 26.6271 44.9937 26.2768 48.8834 27.2534C52.7731 28.2301 56.2252 30.4777 58.692 33.6397C61.1588 36.8017 62.4991 40.6969 62.5 44.7073C62.5 48.8511 61 52.2073 57.25 52.2073C53.5 52.2073 52 48.8511 52 44.7073V37.2073" stroke="#D6D6E3" stroke-width="2" stroke-linecap="round" stroke-linejoin="round"/>
</svg>
