<svg width="27" height="27" viewBox="0 0 27 27" fill="none" xmlns="http://www.w3.org/2000/svg">
<rect width="26.9717" height="26.9717" rx="13.4859" fill="url(#paint0_linear_20_147)"/>
<path d="M13.4881 6.85288C15.6502 6.85288 15.904 6.86252 16.7586 6.90107C17.5489 6.93641 17.9761 7.06812 18.2621 7.18057C18.6412 7.32835 18.911 7.50183 19.1937 7.78454C19.4764 8.06725 19.6531 8.33711 19.7977 8.7162C19.9069 9.00212 20.0419 9.4294 20.0772 10.2197C20.1157 11.0743 20.1254 11.3281 20.1254 13.4902C20.1254 15.6522 20.1157 15.906 20.0772 16.7606C20.0419 17.5509 19.9101 17.9782 19.7977 18.2641C19.6499 18.6432 19.4764 18.9131 19.1937 19.1958C18.911 19.4785 18.6412 19.6552 18.2621 19.7997C17.9761 19.909 17.5489 20.0439 16.7586 20.0792C15.904 20.1178 15.6502 20.1274 13.4881 20.1274C11.326 20.1274 11.0722 20.1178 10.2177 20.0792C9.42735 20.0439 9.00007 19.9122 8.71415 19.7997C8.33506 19.652 8.0652 19.4785 7.78249 19.1958C7.49978 18.9131 7.32308 18.6432 7.17851 18.2641C7.06928 17.9782 6.93435 17.5509 6.89902 16.7606C6.86046 15.906 6.85083 15.6522 6.85083 13.4902C6.85083 11.3281 6.86046 11.0743 6.89902 10.2197C6.93435 9.4294 7.06607 9.00212 7.17851 8.7162C7.32629 8.33711 7.49978 8.06725 7.78249 7.78454C8.0652 7.50183 8.33506 7.32513 8.71415 7.18057C9.00007 7.07134 9.42735 6.93641 10.2177 6.90107C11.0722 6.8593 11.3292 6.85288 13.4881 6.85288ZM13.4881 5.39435C11.2907 5.39435 11.0144 5.40399 10.1502 5.44254C9.28921 5.48109 8.7013 5.61923 8.18728 5.81841C7.65398 6.02402 7.20421 6.30352 6.75445 6.75329C6.30468 7.20305 6.02839 7.65603 5.81957 8.18612C5.62039 8.70014 5.48225 9.28805 5.4437 10.1522C5.40515 11.0132 5.39551 11.2895 5.39551 13.4869C5.39551 15.6844 5.40515 15.9607 5.4437 16.8249C5.48225 17.6858 5.62039 18.2737 5.81957 18.791C6.02518 19.3243 6.30468 19.774 6.75445 20.2238C7.20421 20.6736 7.65719 20.9499 8.18728 21.1587C8.7013 21.3579 9.28921 21.496 10.1534 21.5346C11.0176 21.5731 11.2907 21.5827 13.4913 21.5827C15.692 21.5827 15.965 21.5731 16.8292 21.5346C17.6902 21.496 18.2781 21.3579 18.7954 21.1587C19.3287 20.9531 19.7784 20.6736 20.2282 20.2238C20.678 19.774 20.9542 19.3211 21.1631 18.791C21.3622 18.277 21.5004 17.6891 21.5389 16.8249C21.5775 15.9607 21.5871 15.6876 21.5871 13.4869C21.5871 11.2863 21.5775 11.0132 21.5389 10.149C21.5004 9.28805 21.3622 8.70014 21.1631 8.1829C20.9575 7.64961 20.678 7.19984 20.2282 6.75007C19.7784 6.30031 19.3254 6.02402 18.7954 5.8152C18.2813 5.61602 17.6934 5.47788 16.8292 5.43932C15.9618 5.40399 15.6855 5.39435 13.4881 5.39435Z" fill="white"/>
<path d="M13.4882 9.33301C11.1944 9.33301 9.33105 11.1931 9.33105 13.4901C9.33105 15.7872 11.1912 17.6473 13.4882 17.6473C15.7852 17.6473 17.6453 15.7872 17.6453 13.4901C17.6453 11.1931 15.7852 9.33301 13.4882 9.33301ZM13.4882 16.1855C11.9975 16.1855 10.7896 14.9776 10.7896 13.4869C10.7896 11.9963 11.9975 10.7883 13.4882 10.7883C14.9788 10.7883 16.1868 11.9963 16.1868 13.4869C16.1868 14.9776 14.9788 16.1855 13.4882 16.1855Z" fill="white"/>
<path d="M17.8091 10.1362C18.3449 10.1362 18.7793 9.70178 18.7793 9.16595C18.7793 8.63012 18.3449 8.19574 17.8091 8.19574C17.2732 8.19574 16.8389 8.63012 16.8389 9.16595C16.8389 9.70178 17.2732 10.1362 17.8091 10.1362Z" fill="white"/>
<defs>
<linearGradient id="paint0_linear_20_147" x1="13.4859" y1="0" x2="13.4859" y2="26.9717" gradientUnits="userSpaceOnUse">
<stop stop-color="#F9D801"/>
<stop offset="0.484375" stop-color="#EE0B1F"/>
<stop offset="1" stop-color="#7A39AD"/>
</linearGradient>
</defs>
</svg>
