<svg width="21" height="27" viewBox="0 0 21 27" fill="none" xmlns="http://www.w3.org/2000/svg">
<path d="M1.94043 25.75H19.7976" stroke="#FF3B33" stroke-width="1.5" stroke-linecap="round" stroke-linejoin="round"/>
<path d="M10.2736 13.8452C12.246 13.8452 13.845 12.2463 13.845 10.2738C13.845 8.30138 12.246 6.70239 10.2736 6.70239C8.30113 6.70239 6.70215 8.30138 6.70215 10.2738C6.70215 12.2463 8.30113 13.8452 10.2736 13.8452Z" stroke="#FF3B33" stroke-width="1.5" stroke-linecap="round" stroke-linejoin="round"/>
<path d="M19.7976 10.3654C19.7976 19.0192 10.2738 25.75 10.2738 25.75C10.2738 25.75 0.75 19.0192 0.75 10.3654C0.75 7.81523 1.7534 5.36952 3.53946 3.56628C5.32552 1.76305 7.74794 0.75 10.2738 0.75C12.7997 0.75 15.2221 1.76305 17.0082 3.56628C18.7942 5.36952 19.7976 7.81523 19.7976 10.3654V10.3654Z" stroke="#FF3B33" stroke-width="1.5" stroke-linecap="round" stroke-linejoin="round"/>
</svg>
