<svg width="27" height="27" viewBox="0 0 27 27" fill="none" xmlns="http://www.w3.org/2000/svg">
<path d="M7.89619 13.3361C9.01674 15.6501 10.8879 17.5164 13.2048 18.631C13.3757 18.712 13.5647 18.747 13.7533 18.7327C13.9418 18.7183 14.1234 18.6552 14.2801 18.5494L17.6831 16.2762C17.8334 16.1742 18.0071 16.112 18.188 16.0953C18.3689 16.0787 18.5511 16.1081 18.7176 16.1809L25.0879 18.9169C25.3056 19.0075 25.4875 19.1672 25.6055 19.3713C25.7236 19.5755 25.7713 19.8128 25.7412 20.0467C25.5393 21.6226 24.7701 23.0709 23.5776 24.1206C22.385 25.1704 20.8508 25.7496 19.262 25.75C14.3523 25.75 9.64373 23.7996 6.17205 20.328C2.70037 16.8563 0.75 12.1477 0.75 7.23797C0.750358 5.6492 1.32961 4.115 2.37937 2.92243C3.42912 1.72987 4.87745 0.960671 6.45334 0.758765C6.68724 0.728719 6.92453 0.776397 7.12868 0.894457C7.33282 1.01252 7.4925 1.19441 7.58311 1.41213L10.3191 7.79606C10.3902 7.95987 10.42 8.13867 10.4058 8.3167C10.3915 8.49473 10.3337 8.66652 10.2374 8.81694L7.96424 12.2743C7.86304 12.4307 7.80364 12.6104 7.79173 12.7963C7.77981 12.9822 7.81578 13.168 7.89619 13.3361V13.3361Z" stroke="#FF3B33" stroke-width="1.5" stroke-linecap="round" stroke-linejoin="round"/>
</svg>
