<svg width="27" height="27" viewBox="0 0 27 27" fill="none" xmlns="http://www.w3.org/2000/svg">
<rect width="26.9717" height="26.9717" rx="13.4859" fill="#1D9BF0"/>
<path d="M11.0179 20.5997C16.9989 20.5997 20.2692 15.6436 20.2692 11.3484C20.2692 11.2068 20.2692 11.0652 20.2624 10.9303C20.8963 10.4718 21.4492 9.89864 21.8875 9.24458C21.3076 9.50081 20.6805 9.67612 20.0197 9.75704C20.694 9.35246 21.2065 8.71863 21.4492 7.95668C20.8221 8.32754 20.1276 8.59725 19.3859 8.7456C18.7925 8.11176 17.9496 7.72067 17.0124 7.72067C15.2187 7.72067 13.7623 9.17715 13.7623 10.9708C13.7623 11.227 13.7892 11.4765 13.8499 11.7125C11.146 11.5776 8.75226 10.283 7.14744 8.31405C6.87098 8.7928 6.70915 9.35246 6.70915 9.94584C6.70915 11.0719 7.2823 12.0699 8.15888 12.6498C7.62619 12.6363 7.12721 12.4879 6.68892 12.2452C6.68892 12.2587 6.68892 12.2722 6.68892 12.2856C6.68892 13.8635 7.80825 15.1716 9.29843 15.4751C9.02872 15.5492 8.73877 15.5897 8.44208 15.5897C8.23305 15.5897 8.03076 15.5695 7.82847 15.529C8.23979 16.8236 9.44004 17.7609 10.8628 17.7879C9.75021 18.6577 8.34768 19.1769 6.82378 19.1769C6.5608 19.1769 6.30457 19.1634 6.04834 19.1297C7.4711 20.0602 9.1838 20.5997 11.0179 20.5997Z" fill="white"/>
</svg>
