<svg width="442" height="511" viewBox="0 0 442 511" fill="none" xmlns="http://www.w3.org/2000/svg">
<path d="M203.421 442.412L147.78 462.399M203.421 442.412L203.421 1.49998M203.421 442.412L267.287 451.709M203.421 442.412L440.5 363.712M440.5 54.3965L384.214 41.8381M440.5 54.3965L440.5 136.644M440.5 54.3965L5.8944 186.315M203.421 1.49998L140.199 18.0618M203.421 1.49998L267.287 15.7496M92.1385 482.387L16.6602 509.5L13.9204 427.252M92.1385 482.387L76.9783 34.6237M92.1385 482.387L147.78 462.399M76.9783 34.6237L1.49998 54.3965L3.69719 120.356M76.9783 34.6237L140.199 18.0618M140.199 18.0618L147.78 462.399M267.287 15.7496L267.287 451.709M267.287 15.7496L327.928 29.2797M267.287 451.709L327.928 460.536M327.928 460.536L327.928 29.2797M327.928 460.536L384.214 468.73M327.928 460.536L440.5 420.318M327.928 29.2797L384.214 41.8381M327.928 29.2797L3.69719 120.356M384.214 41.8381L384.214 468.73M384.214 468.73L440.5 476.923L440.5 420.318M13.9204 427.252L440.5 286.948M13.9204 427.252L11.6211 358.229M440.5 286.948L440.5 209.861M440.5 286.948L440.5 363.712M11.6211 358.229L440.5 209.861M11.6211 358.229L8.8061 273.723M440.5 209.861L440.5 136.644M8.8061 273.723L440.5 136.644M8.8061 273.723L5.8944 186.315M5.8944 186.315L3.69719 120.356M440.5 363.712L440.5 420.318" stroke="url(#paint0_linear_7_941)" stroke-width="2"/>
<defs>
<linearGradient id="paint0_linear_7_941" x1="419" y1="84" x2="261.5" y2="286" gradientUnits="userSpaceOnUse">
<stop stop-color="#CFDEEC"/>
<stop offset="1" stop-color="#B0C2D5" stop-opacity="0"/>
</linearGradient>
</defs>
</svg>
